<?xml version="1.0" encoding="UTF-8"?><svg id="Layer_1" xmlns="http://www.w3.org/2000/svg" viewBox="0 0 598.8 239.56"><defs><style>.cls-1{fill:#fff;}</style></defs><path class="cls-1" d="M524.5,63.52c2.05,2.16,3.01,3.59,4.33,4.51,7.01,4.9,8.68,11.58,8.22,19.86-.65,11.56-.16,23.19-.16,35.45-7.21,0-15.33,.11-23.43-.14-.97-.03-2.63-1.96-2.71-3.09-.56-7.8-.84-15.62-1.09-23.43-.13-4.16-.01-8.33-.03-12.5-.03-7.5-1.24-8.51-9.76-7.47v46.34h-27.14V.88h22.43c6.83,0,13.67,.17,20.49-.07,3.3-.12,5.35,1.4,7.85,3.26,10.99,8.14,14.51,18.46,13.83,32.21-.56,11.27-1.3,21.06-12.83,27.25h0Zm-24.45-40.32v28.97c7.95,1.69,9.56,.44,9.58-7.21,.01-4.66,0-9.31,0-13.97-.01-7.95-.92-8.72-9.58-7.8h0Z"/><path class="cls-1" d="M396.81,1.13h27.59V92.77c0,1.5-.5,3.4,.22,4.41,1.15,1.62,3.12,3.65,4.76,3.67,1.7,.02,3.77-1.89,5.01-3.47,.74-.95,.24-2.9,.24-4.4V1.21h27.22c.09,1.72,.27,3.48,.27,5.23,.02,31.68,.09,63.37-.13,95.05-.02,2.62-1.59,5.52-3.17,7.79-8.08,11.66-18.98,15.7-33.33,14.5-8.43-.7-14.33-2.9-20.3-8.81-6.14-6.08-8.82-12.03-8.63-20.82,.61-29,.23-58.03,.23-87.04V1.14h.02Z"/><path class="cls-1" d="M124.8,61.56c0-13.34-.02-26.67,.01-40.01,.01-5.46,15.12-20.64,20.57-20.66,8-.04,16-.18,23.99,.11,2.06,.07,4.31,1.22,6.05,2.47,11.9,8.47,16.12,19.58,15.1,34.54-1.43,21.07-.26,42.32-.5,63.49-.03,2.48-1.48,5.22-2.97,7.35-8.29,11.91-19.4,16.25-34.14,14.93-8.1-.72-13.6-3.11-19.4-8.52-6.65-6.21-9.61-12.56-8.9-21.71,.83-10.61,.19-21.32,.19-31.99h0Zm27.58,.53c0,10.83,.02,21.67,0,32.5,0,3.4,.19,6.43,4.77,6.56,4.67,.13,5.49-2.7,5.49-6.49-.03-21.83-.02-43.67,0-65.5,0-3.53-.77-6.33-5.15-6.34-4.35,0-5.14,2.63-5.12,6.27,.08,11,.03,22,.03,33h-.01Z"/><path class="cls-1" d="M114.35,61.99c0,13.32,.13,26.65-.13,39.96-.05,2.35-1.34,4.94-2.73,6.97-8.24,12.06-19.49,15.97-34.13,14.87-8.42-.63-13.83-3.52-19.69-8.97-6.4-5.96-8.77-12.1-8.55-20.81,.61-23.8,.11-47.62,.35-71.43,.03-2.62,1.52-5.52,3.07-7.79C60.57,3,71.6-.79,85.85,.5c8.07,.73,14.04,2.38,19.95,8.27,6.23,6.22,9.41,12.29,8.73,21.26-.8,10.6-.19,21.3-.19,31.96h.01Zm-37.74-.53c0,11.33-.05,22.66,.03,34,.03,3.35,1.27,5.77,5.32,5.71,3.38-.05,4.97-1.69,4.98-4.86,.04-22.83,.04-45.66,0-68.49,0-3.5-1.91-5.13-5.41-4.98-4.41,.18-4.92,3.27-4.93,6.64-.04,10.67-.01,21.33,0,32v-.02Z"/><path class="cls-1" d="M324.31,.89c15.31,0,30.13-.03,44.95,.06,1.19,0,2.4,.82,3.55,1.36,.43,.2,.68,.73,1.09,1.02,11.89,8.42,16.77,19.56,14.62,34.24-1.02,7.02,.06,14.33-.31,21.48-.12,2.36-1.41,4.95-2.87,6.92-7.76,10.49-17.44,17-31.31,14.1-.59-.12-1.27,.16-2.54,.35v42.59h-27.19V.89h.01Zm27.22,56.35c8.31,1.38,9.42,.48,9.43-7.12V30.62c-.01-7.6-1.73-8.9-9.43-7V57.24Z"/><path class="cls-1" d="M174.63,142.22h19.1c-4.09,32.32-8.15,64.3-12.23,96.58h-20.02c-1.75-13.28-3.5-26.58-5.26-39.88l-1.15-.13c-1.84,13.3-3.68,26.6-5.55,40.1h-19.83c-4.08-32.07-8.17-64.17-12.3-96.63h20.51c1.63,14.28,3.27,28.67,4.91,43.07l1.04,.06c1.52-14.3,3.03-28.59,4.58-43.15h15.82c1.5,14.38,2.99,28.58,4.47,42.77l1.05,.12c1.62-14.25,3.23-28.5,4.86-42.9h0Z"/><path class="cls-1" d="M574.92,49.56h21.56v23.31h-21.36v26.7h23.2v23.46h-50.6V1.24h50.67V24.16h-23.46v25.4h-.01Z"/><path class="cls-1" d="M31.99,199.33v39.47H11.88v-96.57h20.19c2.88,12.32,5.75,24.55,8.61,36.78l1.06-.06v-36.64h20.31v96.44h-18.44c-3.46-13.09-6.94-26.24-10.42-39.4l-1.2-.02Z"/><path class="cls-1" d="M488.37,142.18h20.13c2.91,12.48,5.84,25.03,8.78,37.58l.94-.07v-37.31h20.4v96.72c-5.62,0-11.23,.17-16.8-.16-.95-.06-2.23-2.14-2.6-3.49-2.9-10.61-5.61-21.27-8.41-31.91-.44-1.68-1.03-3.32-2.62-4.84v40.22h-19.83v-96.74h0Z"/><path class="cls-1" d="M547.36,141.95c12.11,0,23.92-.07,35.73,.1,1.42,.02,3.07,1.09,4.18,2.13,7.69,7.19,11.52,16.14,11.5,26.83,0,16.66,.14,33.31-.15,49.96-.05,2.61-1.66,5.45-3.19,7.74-5.91,8.83-14.17,11.82-24.76,10.58-7.54-.88-15.27-.17-23.3-.17v-97.18h0Zm21.89,79.24c6.69,1.05,7.54,.38,7.55-5.77,.02-16.66,.02-33.33,0-49.99,0-5.97-1.1-6.74-7.54-5.27v61.03h-.01Z"/><path class="cls-1" d="M423.47,238.74c5.16-32.32,10.24-64.2,15.38-96.43h28.39c5.07,31.85,10.17,63.86,15.35,96.37h-21.61c-.45-3.49-1.18-7.21-1.36-10.96-.15-3.22-1.42-4.53-4.6-4.19-1.48,.16-3.02,.2-4.49,0-3.47-.47-4.75,1.1-4.93,4.42-.19,3.48-.76,6.95-1.21,10.8h-20.92Zm29.74-62.66l-1.22-.02c-1.18,9.85-2.37,19.7-3.57,29.7h8.4c-1.24-10.17-2.43-19.93-3.61-29.69h0Z"/><path class="cls-1" d="M374.53,239.11c-6.83,0-13.12,.09-19.4-.1-.88-.03-1.82-1.37-2.51-2.28-.35-.45-.19-1.29-.27-1.95-.97-7.74-5.61-11.41-13.93-11.02-.73,4.85-1.49,9.84-2.28,15.09h-20.7c5.13-32.26,10.24-64.33,15.38-96.63h28.3c5.09,32.01,10.2,64.14,15.41,96.89Zm-29.37-63.04l-1.22-.11c-1.19,9.9-2.38,19.8-3.58,29.76h8.39c-1.23-10.18-2.41-19.92-3.58-29.65h-.01Z"/><path class="cls-1" d="M38.56,.88V123.03H11.61V34.41c-4.05-.19-7.64-.36-11.61-.54V10.22c1.35-.08,2.67-.37,3.92-.2,7.59,1.04,13.87-.68,18.81-7.15,1.2-1.57,4.7-1.64,7.19-1.92,2.75-.31,5.56-.07,8.64-.07Z"/><path class="cls-1" d="M111.34,142.31v18.27h-18.45v19.82h16.9v18.83h-16.93v20.91h18.38v18.66h-40.28v-96.51h40.38v.02Z"/><path class="cls-1" d="M291.29,160.53v19.83h17.02v18.75h-16.9v21.17h18.73v18.52h-40.26v-96.45h40.28v18.18h-18.87Z"/><path class="cls-1" d="M242.72,220.41h19.51v18.29h-44.31c.5-6.72-.14-13.89,1.73-20.33,5.02-17.26,11.11-34.2,16.77-51.28,.62-1.87,1.17-3.77,1.97-6.34h-20.03v-18.55h44.79c-.72,7.34-.37,14.79-2.33,21.58-5.04,17.41-11.12,34.53-16.77,51.77-.45,1.38-.77,2.81-1.32,4.87h-.01Z"/><path class="cls-1" d="M380.01,142.18h21.21v78.08h17.07v18.56h-38.28v-96.64Z"/><path class="cls-1" d="M292.55,97.48c0,2.17-.38,4.42,.07,6.49,1.78,8.13-2.8,13.15-8.36,17.67-1.04,.85-2.64,1.24-4.02,1.39-2.14,.23-4.42-.34-6.48,.13-8.5,1.95-12.63-4.18-17.31-9.2-.76-.82-.9-2.45-.91-3.7-.07-8.84-.09-17.67-.02-26.51,.04-4.73,8.34-12.86,13.11-13,1.17-.03,2.37,.17,3.49-.04,7.7-1.42,13.63,1.4,17.98,7.65,1.14,1.64,2.18,3.68,2.33,5.61,.34,4.48,.11,8.99,.11,13.5h.01Zm-15.7,0h.02c0-3.16,.23-6.34-.12-9.46-.13-1.12-1.66-2.08-2.56-3.11-.95,.96-2.68,1.9-2.72,2.9-.25,6.14-.24,12.29,.03,18.43,.04,.97,1.8,1.87,2.76,2.81,.87-1.03,2.33-1.98,2.48-3.1,.36-2.78,.12-5.63,.12-8.46h-.01Z"/><path class="cls-1" d="M235.45,26.77c0,3.17-.31,6.37,.07,9.49,.64,5.14-1.33,8.7-5.05,12.15-7.36,6.82-19.62,6.85-26.95,.13-3.9-3.58-5.57-7.33-5.17-12.59,.43-5.63,.51-11.36,0-16.97-.57-6.05,1.43-10.33,5.94-14.31,2.96-2.62,5.63-4.09,9.63-3.86,6.32,.37,12.71-1.11,17.55,5.42,2.52,3.4,4.45,6.25,4.07,10.56-.3,3.3-.06,6.66-.06,9.99h-.02Zm-15.56,.13h.04c0-2.83,.29-5.7-.13-8.47-.2-1.28-1.79-2.35-2.74-3.52-.94,1.13-2.62,2.23-2.68,3.4-.28,5.81-.25,11.65,0,17.46,.05,1.12,1.55,2.18,2.38,3.26,1.05-1.05,2.82-2,3-3.18,.44-2.93,.14-5.97,.14-8.96h0Z"/><path class="cls-1" d="M238.93,59.91c1.99,3.31,3.05,5.07,3.74,6.23,2.42-.35,4.38-.64,6.35-.92,.18,3.16,1.32,6.66,.33,9.38-1.53,4.21-4.7,7.81-6.78,11.86-.8,1.56-1.14,3.85-.66,5.49,.9,3.06-.41,3.83-2.84,3.41-4.92-.86-6.92,1.96-8.28,5.94-1.62,4.72-3.25,9.43-5.03,14.09-2.28,5.94-12.8,9.98-18.54,7.45-1.8-.79-4.1-.48-5.85-1.32-1.58-.76-4.1-3.11-3.87-3.57,3.3-6.46,5.62-14.61,10.97-18.53,5.92-4.33,11-9.39,16.52-14.03,.51-.43,1.17-.8,1.45-1.36,2.4-4.91,4.64-9.9,7.11-14.77,1.56-3.08,3.44-5.99,5.39-9.35h-.01Z"/><path class="cls-1" d="M236.77,0c1.33,.53,2.71,.97,3.99,1.61,1.87,.94,3.56,2.52,5.51,2.94,4.86,1.06,9.31,7.68,9.18,13.89-.04,1.85,.76,3.73,1.28,6.05,1.08-.89,1.39-1.04,1.54-1.28,.78-1.34,1.52-2.7,2.28-4.05,1.03,1.26,2.47,2.36,3.01,3.8,2.33,6.18,5.18,8.29,9.35,6.36,2.1-.98,4.09-2.2,6.1-3.3,3.5,2.67,3.91,7.64,1.09,12.08-.58,.91-1.38,1.9-1.44,2.89-.16,2.96-.31,4.48-4.04,2.53-3.36-1.77-4.32,1.46-4.42,4-.34,8.31-5.27,14.42-10.12,20.33-1.01,1.23-4.96,.05-7.55-.02,.18-1.78-.1-3.77,.62-5.29,3.55-7.58,3.64-7.54-4.22-11.48-4.01-2.01-4.21-3.51-.85-6.42,5.61-4.86,6.9-13.98,2.92-20.07-4.96-7.6-9.84-15.26-14.76-22.89l.52-1.67h0Z"/><path class="cls-1" d="M201.97,132.53c.98-2.34,1.96-4.68,3.44-8.2,1.7,2.1,3.15,3.89,4.6,5.67l-7.55,4.05-.49-1.53h0Z"/></svg>